<svg version="1.1" xmlns="http://www.w3.org/2000/svg" xmlns:xlink="http://www.w3.org/1999/xlink" x="0px" y="0px" viewBox="0 0 144 144" style="enable-background:new 0 0 144 144;" xml:space="preserve">
<style type="text/css">
	.st3{stroke:#ffffff;fill:#ffffff;stroke-width:2;stroke-linecap:round;stroke-linejoin:round;stroke-miterlimit:10;}
</style>
<g id="ABS">
	<g>
		<path class="st3" d="M105.6,42.1L95.7,59c2,3.6,3.2,7.8,3.3,12.2l12.3-21.1C109.7,47.2,107.8,44.5,105.6,42.1z"/>
		<path class="st3" d="M72.3,99l-9.9,17c3.1,0.7,6.3,1,9.6,1c0.1,0,0.1,0,0.2,0l12.3-21.1C80.9,97.8,76.7,98.9,72.3,99z"/>
		<path class="st3" d="M47.7,34.1L27.1,69.3C27,70.2,27,71.1,27,72c0,4.3,0.6,8.4,1.7,12.4l32.8-56.1C56.6,29.4,51.9,31.4,47.7,34.1
			z"/>
		<path class="st3" d="M81.9,46.9c2.8,1.1,5.4,2.7,7.7,4.7l9.2-15.7c-2.4-1.8-5-3.3-7.7-4.6L81.9,46.9z"/>
		<path class="st3" d="M48.8,85.7c-2-3.4-3.3-7.4-3.7-11.5l-12,20.5c1.7,2.8,3.6,5.5,5.8,7.9L48.8,85.7z"/>
		<path class="st3" d="M60.7,47.4C64.2,45.9,68,45,72,45c0.2,0,0.4,0,0.6,0l9.8-16.8c-3.1-0.7-6.4-1.2-9.7-1.2L60.7,47.4z"/>
		<path class="st3" d="M116.8,76.4c0.1-1.5,0.2-2.9,0.2-4.4c0-3.9-0.5-7.7-1.4-11.3l-32.1,54.8c5.2-1.4,10-3.7,14.3-6.7L116.8,76.4z
			"/>
		<path class="st3" d="M62.8,97.4c-2.9-1-5.5-2.5-7.8-4.4l-9.2,15.6c2.4,1.7,5,3.2,7.8,4.5L62.8,97.4z"/>
	</g>
</g>
</svg>