<svg version="1.1" xmlns="http://www.w3.org/2000/svg" xmlns:xlink="http://www.w3.org/1999/xlink" x="0px" y="0px" viewBox="0 0 144 144" style="enable-background:new 0 0 144 144;" xml:space="preserve">
<style type="text/css">
	.st3{stroke:#000000;stroke-width:2;stroke-linecap:round;stroke-linejoin:round;stroke-miterlimit:10;}
	.st4{fill:none;stroke:#000000;stroke-width:2;stroke-linecap:round;stroke-linejoin:round;stroke-miterlimit:10;}
</style>
<g id="AUD">
	<path class="st3" d="M109.2,100c0.5-0.7,1.1-1.5,1.6-2.3c0.5-0.8,1-1.6,1.4-2.4c0-0.1,0.1-0.1,0.1-0.2c0.4-0.7,0.7-1.4,1.1-2.2
		c0.1-0.1,0.1-0.3,0.2-0.4c0.4-0.8,0.7-1.6,1-2.5c0.3-0.8,0.6-1.7,0.8-2.5c0.1-0.2,0.1-0.4,0.1-0.5c0.2-0.7,0.4-1.3,0.5-2
		c0-0.2,0.1-0.4,0.1-0.6c0.2-0.8,0.3-1.7,0.4-2.5c0,0,0,0,0,0c0.1-0.9,0.2-1.7,0.3-2.6c0-0.2,0-0.5,0-0.7c0-0.6,0-1.3,0-1.9
		c0-0.3,0-0.5,0-0.8c0-0.9-0.1-1.7-0.1-2.6c-0.1-1.1-0.2-2.1-0.4-3.1c-0.2-1-0.4-2-0.7-3c-0.3-1-0.6-2-0.9-2.9
		c-0.3-1-0.7-1.9-1.1-2.9c-0.4-0.9-0.8-1.9-1.3-2.8s-1-1.8-1.5-2.7c-0.5-0.9-1.1-1.7-1.7-2.6c-0.6-0.8-1.2-1.7-1.9-2.5
		c-0.7-0.8-1.3-1.6-2-2.4s-1.4-1.5-2.2-2.3s-1.5-1.5-2.3-2.2c-0.8-0.7-1.6-1.4-2.5-2.1c-0.8-0.7-1.7-1.4-2.6-2
		c-0.9-0.7-1.8-1.3-2.7-1.9s-1.8-1.2-2.8-1.8c-0.9-0.6-1.9-1.2-2.8-1.7c-1-0.6-1.9-1.1-2.9-1.6c-1-0.5-2-1-3-1.5
		c-1-0.5-2-0.9-3.1-1.3c-1-0.4-2.1-0.8-3.1-1.1c-1-0.3-2.1-0.6-3.1-0.9c-1-0.3-2.1-0.5-3.1-0.6c-0.9-0.1-1.7-0.2-2.6-0.3
		c-0.2,0-0.5,0-0.7-0.1c-0.6,0-1.2-0.1-1.9-0.1c-0.2,0-0.5,0-0.7,0c-0.8,0-1.6,0-2.4,0.1c0,0,0,0,0,0c-0.8,0.1-1.6,0.2-2.3,0.3
		c-0.2,0-0.4,0.1-0.6,0.1c-0.6,0.1-1.2,0.2-1.8,0.4c-0.2,0-0.3,0.1-0.5,0.1c-0.8,0.2-1.5,0.4-2.2,0.7c-0.7,0.3-1.4,0.6-2.2,0.9
		c-0.1,0.1-0.2,0.1-0.3,0.2c-0.6,0.3-1.3,0.6-1.9,1c-0.1,0-0.1,0.1-0.2,0.1c-0.7,0.4-1.4,0.9-2,1.3c-0.7,0.5-1.3,1-1.9,1.5
		c0,0-0.1,0.1-0.1,0.1c-0.6,0.5-1.3,1.1-1.9,1.7s-1.2,1.2-1.8,1.9c-0.6,0.7-1.1,1.4-1.6,2.1c-0.5,0.7-1,1.5-1.5,2.2
		c-0.5,0.8-1,1.6-1.4,2.4c-0.5,0.8-0.9,1.7-1.3,2.5s-0.8,1.8-1.2,2.7c-0.4,0.9-0.7,1.9-1.1,2.8c-0.3,1-0.7,1.9-1,2.9
		c-0.3,1-0.6,2-0.8,3c-0.3,1-0.5,2.1-0.7,3.1c-0.2,1.1-0.4,2.1-0.6,3.2c-0.2,1.1-0.3,2.2-0.4,3.3c-0.1,1.1-0.2,2.2-0.2,3.3
		c0,1-0.1,2-0.1,2.9c0,1,0,1.9,0.1,2.9c0.1,0.9,0.1,1.9,0.2,2.8c0.1,0.9,0.2,1.8,0.4,2.7s0.3,1.8,0.5,2.6s0.4,1.7,0.7,2.6
		s0.5,1.7,0.8,2.5c0.3,0.8,0.6,1.6,0.9,2.4c0.3,0.8,0.7,1.5,1.1,2.3c0.4,0.7,0.8,1.5,1.2,2.2c0,0.1,0.1,0.1,0.1,0.2
		c0.4,0.7,0.9,1.3,1.3,2c0.1,0.1,0.2,0.3,0.3,0.4c0.4,0.5,0.8,1.1,1.2,1.6c0.2,0.2,0.4,0.5,0.6,0.7c0.4,0.4,0.7,0.8,1.1,1.2
		c0.3,0.3,0.6,0.6,0.9,0.9s0.6,0.6,0.9,0.9c0.4,0.4,0.8,0.8,1.2,1.1c0.2,0.2,0.5,0.4,0.7,0.6c0.5,0.4,1.1,0.9,1.6,1.3
		c0.1,0.1,0.3,0.2,0.4,0.3c0.7,0.5,1.3,1,2,1.4c0.1,0,0.1,0.1,0.2,0.1c0.7,0.5,1.5,0.9,2.3,1.4c0.8,0.4,1.5,0.9,2.3,1.3
		c0.8,0.4,1.6,0.8,2.4,1.1c0.8,0.4,1.7,0.7,2.5,1c0.8,0.3,1.7,0.6,2.6,0.9c0.9,0.3,1.7,0.5,2.6,0.7s1.8,0.4,2.7,0.6
		c0.9,0.2,1.8,0.3,2.7,0.4c0.9,0.1,1.8,0.2,2.8,0.3s1.9,0.1,2.8,0.1c1.1,0,2.1,0,3.2-0.1s2.1-0.2,3.1-0.3s2-0.3,3-0.5s2-0.4,2.9-0.7
		c1-0.3,1.9-0.5,2.9-0.9c0.9-0.3,1.9-0.7,2.8-1c0.9-0.4,1.8-0.8,2.7-1.2c0.9-0.4,1.7-0.9,2.5-1.4c0.8-0.5,1.6-1,2.4-1.5
		s1.6-1.1,2.3-1.7c0.7-0.6,1.5-1.2,2.2-1.8c0.7-0.6,1.4-1.3,2-2c0.7-0.7,1.3-1.4,1.9-2.1c0.6-0.7,1.2-1.5,1.8-2.2
		C109.1,100.1,109.2,100,109.2,100z M60.9,95.9L60.9,95.9c-0.5-0.3-1-0.7-1.5-1s-1-0.7-1.5-1.1c0,0-0.1,0-0.1-0.1
		c-0.4-0.3-0.8-0.6-1.1-1c-0.1-0.1-0.2-0.2-0.3-0.3c-0.3-0.3-0.5-0.5-0.8-0.8c-0.2-0.2-0.4-0.4-0.6-0.6c-0.2-0.2-0.4-0.4-0.5-0.6
		c-0.3-0.3-0.5-0.6-0.8-0.9c-0.1-0.1-0.2-0.2-0.3-0.3c-0.3-0.4-0.6-0.8-0.9-1.2c0,0,0-0.1-0.1-0.1c-0.4-0.5-0.7-1-1-1.5
		c-0.3-0.5-0.6-1.1-1-1.6l0,0c-0.4-0.7-0.8-1.5-1.1-2.3c-0.3-0.8-0.7-1.6-1-2.4c-0.3-0.8-0.6-1.6-0.8-2.5c-0.2-0.8-0.4-1.7-0.6-2.6
		s-0.3-1.8-0.4-2.6c-0.1-0.9-0.2-1.8-0.2-2.7c0-0.9-0.1-1.8-0.1-2.7c0-0.9,0.1-1.7,0.1-2.6c0.1-0.8,0.2-1.7,0.3-2.5
		c0.1-0.8,0.3-1.6,0.5-2.3s0.4-1.5,0.6-2.2c0.2-0.7,0.5-1.4,0.7-2l0,0c0.3-0.7,0.6-1.4,1-2.1s0.8-1.3,1.2-1.9
		c0.4-0.6,0.9-1.1,1.3-1.7c0.5-0.5,1-1,1.5-1.4c0.5-0.4,1.1-0.8,1.6-1.2c0.6-0.3,1.1-0.6,1.8-0.9c0,0,0.1,0,0.1,0
		c0.8-0.3,1.6-0.6,2.4-0.7c0.1,0,0.1,0,0.2,0c0.3-0.1,0.7-0.1,1.1-0.1c0.1,0,0.2,0,0.3,0c0.9-0.1,1.7,0,2.6,0c0.1,0,0.2,0,0.4,0
		c0.3,0,0.7,0.1,1,0.2c0.1,0,0.3,0,0.4,0.1c0.5,0.1,0.9,0.2,1.4,0.3c0.9,0.2,1.8,0.6,2.8,0.9s1.9,0.8,2.8,1.3c0.9,0.5,1.9,1,2.8,1.6
		c0.9,0.6,1.9,1.2,2.8,1.8c0.5,0.3,0.9,0.7,1.4,1c0.5,0.3,0.9,0.7,1.4,1c0.5,0.4,0.9,0.7,1.4,1.1s0.9,0.7,1.4,1.1
		c0.5,0.4,0.9,0.8,1.4,1.1c0.5,0.4,0.9,0.8,1.4,1.2c0.4,0.4,0.9,0.8,1.3,1.2s0.9,0.8,1.3,1.2c0.4,0.4,0.8,0.8,1.2,1.2
		c0.4,0.4,0.8,0.8,1.2,1.2c0.8,0.8,1.5,1.7,2.1,2.5c0.7,0.9,1.3,1.7,1.8,2.6c0.6,0.9,1.1,1.7,1.5,2.6c0.4,0.9,0.8,1.8,1.2,2.7
		c0.3,0.9,0.6,1.8,0.8,2.8c0.1,0.5,0.2,1,0.3,1.5c0,0.1,0,0.3,0.1,0.4c0,0.4,0.1,0.7,0.1,1.1c0,0.1,0,0.3,0,0.4c0,1,0,1.9-0.1,2.8
		c0,0.1,0,0.2,0,0.3c-0.1,0.4-0.1,0.8-0.2,1.2c0,0.1,0,0.2,0,0.2c-0.2,0.9-0.5,1.9-0.8,2.7c0,0,0,0.1,0,0.1c-0.3,0.7-0.6,1.4-1,2
		s-0.8,1.3-1.2,1.9c-0.4,0.6-0.9,1.2-1.4,1.8c-0.5,0.6-1.1,1.1-1.6,1.6c-0.6,0.5-1.2,1-1.9,1.5c-0.7,0.5-1.3,0.9-2,1.3l0,0
		c-0.6,0.3-1.3,0.7-2,1s-1.4,0.6-2.1,0.8c-0.7,0.2-1.5,0.4-2.2,0.6c-0.8,0.2-1.5,0.3-2.3,0.4c-0.8,0.1-1.6,0.2-2.4,0.2
		c-0.8,0-1.7,0.1-2.5,0c-0.9,0-1.7-0.1-2.6-0.2c-0.8-0.1-1.7-0.2-2.5-0.4c-0.8-0.2-1.7-0.4-2.5-0.6c-0.8-0.2-1.6-0.5-2.4-0.8
		c-0.8-0.3-1.5-0.7-2.3-1C62.3,96.8,61.6,96.4,60.9,95.9z"/>
	<path class="st4" d="M80.2,76c0.2,0.8,0.3,1.5,0.3,2.2c0,0.7-0.1,1.3-0.4,1.9c-0.2,0.6-0.6,1.1-1,1.5c-0.4,0.4-0.9,0.8-1.5,1.1
		c-0.6,0.3-1.3,0.5-2,0.6c-0.7,0.1-1.5,0.1-2.4-0.1c-0.8-0.1-1.7-0.4-2.5-0.7c-0.8-0.3-1.6-0.8-2.3-1.3s-1.4-1.1-2.1-1.7
		c-0.6-0.6-1.2-1.4-1.7-2.1c-0.5-0.8-0.9-1.6-1.3-2.4c-0.4-0.8-0.6-1.7-0.8-2.6c-0.2-0.9-0.2-1.7-0.2-2.4c0-0.8,0.2-1.4,0.4-2.1
		c0.2-0.6,0.5-1.1,0.9-1.6c0.4-0.4,0.8-0.8,1.4-1c0.5-0.2,1.1-0.4,1.8-0.4c0.7,0,1.4,0,2.2,0.2s1.6,0.5,2.3,0.9
		c0.8,0.4,1.6,0.9,2.3,1.4c0.8,0.5,1.5,1.1,2.2,1.8c0.7,0.7,1.3,1.4,1.9,2.1c0.6,0.7,1.1,1.5,1.5,2.3S80,75.2,80.2,76z"/>
</g>
</svg>