<?xml version="1.0" encoding="utf-8"?>
<!-- Generator: Adobe Illustrator 21.1.0, SVG Export Plug-In . SVG Version: 6.00 Build 0)  -->
<svg version="1.1" xmlns="http://www.w3.org/2000/svg" xmlns:xlink="http://www.w3.org/1999/xlink" x="0px" y="0px"
	 viewBox="0 0 144 144" style="enable-background:new 0 0 144 144;" xml:space="preserve">
<style type="text/css">
	.st0{display:none;}
	.st1{display:inline;stroke:#000000;stroke-width:2;stroke-linecap:round;stroke-linejoin:round;stroke-miterlimit:10;}
	.st2{stroke:#000000;stroke-width:2;stroke-linecap:round;stroke-linejoin:round;stroke-miterlimit:10;}
	.st3{display:inline;fill:none;stroke:#000000;stroke-width:2;stroke-linecap:round;stroke-linejoin:round;stroke-miterlimit:10;}
	.st4{display:inline;}
	.st5{display:inline;stroke:#000000;stroke-width:2;stroke-miterlimit:10;}
</style>
<g id="VIS" class="st0">
	<path class="st1" d="M49.5,111l9-15.6C50.4,90.7,45,82,45,72c0-14.9,12.1-27,27-27s27,12.1,27,27c0,10-5.4,18.7-13.5,23.4l9,15.6
		c13.4-7.8,22.5-22.3,22.5-39c0-24.9-20.1-45-45-45S27,47.1,27,72C27,88.7,36.1,103.2,49.5,111z"/>
</g>
<g id="COD">
	<g>
		<path class="st2" d="M31.2,57.3c6-16.7,22-28.6,40.8-28.6c6.6,0,12.8,1.5,18.4,4.1l0.8-1.4C85.4,28.6,78.9,27,72,27
			c-19.5,0-36.1,12.5-42.4,29.8L31.2,57.3z"/>
		<path class="st2" d="M97.6,35l-0.8,1.4c11.2,7.8,18.6,20.9,18.6,35.6c0,23.9-19.5,43.4-43.4,43.4c-23.9,0-43.4-19.5-43.4-43.4
			c0-2.6,0.2-5.1,0.7-7.6L27.7,64c-0.5,2.6-0.7,5.3-0.7,8c0,24.8,20.2,45,45,45s45-20.2,45-45C117,56.7,109.3,43.2,97.6,35z"/>
	</g>
	<path class="st2" d="M72,88.8c-0.2,0-0.4-0.1-0.5-0.3L57.4,64.2c-0.1-0.2-0.1-0.4,0-0.6c0.1-0.2,0.3-0.3,0.5-0.3h28.1
		c0.2,0,0.4,0.1,0.5,0.3s0.1,0.4,0,0.6L72.5,88.5C72.4,88.7,72.2,88.8,72,88.8z M59,64.5l13,22.5l13-22.5H59z"/>
</g>
<g id="AUD" class="st0">
	<path class="st1" d="M109.2,100c0.5-0.7,1.1-1.5,1.6-2.3c0.5-0.8,1-1.6,1.4-2.4c0-0.1,0.1-0.1,0.1-0.2c0.4-0.7,0.7-1.4,1.1-2.2
		c0.1-0.1,0.1-0.3,0.2-0.4c0.4-0.8,0.7-1.6,1-2.5c0.3-0.8,0.6-1.7,0.8-2.5c0.1-0.2,0.1-0.4,0.1-0.5c0.2-0.7,0.4-1.3,0.5-2
		c0-0.2,0.1-0.4,0.1-0.6c0.2-0.8,0.3-1.7,0.4-2.5c0,0,0,0,0,0c0.1-0.9,0.2-1.7,0.3-2.6c0-0.2,0-0.5,0-0.7c0-0.6,0-1.3,0-1.9
		c0-0.3,0-0.5,0-0.8c0-0.9-0.1-1.7-0.1-2.6c-0.1-1.1-0.2-2.1-0.4-3.1c-0.2-1-0.4-2-0.7-3c-0.3-1-0.6-2-0.9-2.9
		c-0.3-1-0.7-1.9-1.1-2.9c-0.4-0.9-0.8-1.9-1.3-2.8s-1-1.8-1.5-2.7c-0.5-0.9-1.1-1.7-1.7-2.6c-0.6-0.8-1.2-1.7-1.9-2.5
		c-0.7-0.8-1.3-1.6-2-2.4s-1.4-1.5-2.2-2.3s-1.5-1.5-2.3-2.2c-0.8-0.7-1.6-1.4-2.5-2.1c-0.8-0.7-1.7-1.4-2.6-2
		c-0.9-0.7-1.8-1.3-2.7-1.9s-1.8-1.2-2.8-1.8c-0.9-0.6-1.9-1.2-2.8-1.7c-1-0.6-1.9-1.1-2.9-1.6c-1-0.5-2-1-3-1.5
		c-1-0.5-2-0.9-3.1-1.3c-1-0.4-2.1-0.8-3.1-1.1c-1-0.3-2.1-0.6-3.1-0.9c-1-0.3-2.1-0.5-3.1-0.6c-0.9-0.1-1.7-0.2-2.6-0.3
		c-0.2,0-0.5,0-0.7-0.1c-0.6,0-1.2-0.1-1.9-0.1c-0.2,0-0.5,0-0.7,0c-0.8,0-1.6,0-2.4,0.1c0,0,0,0,0,0c-0.8,0.1-1.6,0.2-2.3,0.3
		c-0.2,0-0.4,0.1-0.6,0.1c-0.6,0.1-1.2,0.2-1.8,0.4c-0.2,0-0.3,0.1-0.5,0.1c-0.8,0.2-1.5,0.4-2.2,0.7c-0.7,0.3-1.4,0.6-2.2,0.9
		c-0.1,0.1-0.2,0.1-0.3,0.2c-0.6,0.3-1.3,0.6-1.9,1c-0.1,0-0.1,0.1-0.2,0.1c-0.7,0.4-1.4,0.9-2,1.3c-0.7,0.5-1.3,1-1.9,1.5
		c0,0-0.1,0.1-0.1,0.1c-0.6,0.5-1.3,1.1-1.9,1.7s-1.2,1.2-1.8,1.9c-0.6,0.7-1.1,1.4-1.6,2.1c-0.5,0.7-1,1.5-1.5,2.2
		c-0.5,0.8-1,1.6-1.4,2.4c-0.5,0.8-0.9,1.7-1.3,2.5s-0.8,1.8-1.2,2.7c-0.4,0.9-0.7,1.9-1.1,2.8c-0.3,1-0.7,1.9-1,2.9
		c-0.3,1-0.6,2-0.8,3c-0.3,1-0.5,2.1-0.7,3.1c-0.2,1.1-0.4,2.1-0.6,3.2c-0.2,1.1-0.3,2.2-0.4,3.3c-0.1,1.1-0.2,2.2-0.2,3.3
		c0,1-0.1,2-0.1,2.9c0,1,0,1.9,0.1,2.9c0.1,0.9,0.1,1.9,0.2,2.8c0.1,0.9,0.2,1.8,0.4,2.7s0.3,1.8,0.5,2.6s0.4,1.7,0.7,2.6
		s0.5,1.7,0.8,2.5c0.3,0.8,0.6,1.6,0.9,2.4c0.3,0.8,0.7,1.5,1.1,2.3c0.4,0.7,0.8,1.5,1.2,2.2c0,0.1,0.1,0.1,0.1,0.2
		c0.4,0.7,0.9,1.3,1.3,2c0.1,0.1,0.2,0.3,0.3,0.4c0.4,0.5,0.8,1.1,1.2,1.6c0.2,0.2,0.4,0.5,0.6,0.7c0.4,0.4,0.7,0.8,1.1,1.2
		c0.3,0.3,0.6,0.6,0.9,0.9s0.6,0.6,0.9,0.9c0.4,0.4,0.8,0.8,1.2,1.1c0.2,0.2,0.5,0.4,0.7,0.6c0.5,0.4,1.1,0.9,1.6,1.3
		c0.1,0.1,0.3,0.2,0.4,0.3c0.7,0.5,1.3,1,2,1.4c0.1,0,0.1,0.1,0.2,0.1c0.7,0.5,1.5,0.9,2.3,1.4c0.8,0.4,1.5,0.9,2.3,1.3
		c0.8,0.4,1.6,0.8,2.4,1.1c0.8,0.4,1.7,0.7,2.5,1c0.8,0.3,1.7,0.6,2.6,0.9c0.9,0.3,1.7,0.5,2.6,0.7s1.8,0.4,2.7,0.6
		c0.9,0.2,1.8,0.3,2.7,0.4c0.9,0.1,1.8,0.2,2.8,0.3s1.9,0.1,2.8,0.1c1.1,0,2.1,0,3.2-0.1s2.1-0.2,3.1-0.3s2-0.3,3-0.5s2-0.4,2.9-0.7
		c1-0.3,1.9-0.5,2.9-0.9c0.9-0.3,1.9-0.7,2.8-1c0.9-0.4,1.8-0.8,2.7-1.2c0.9-0.4,1.7-0.9,2.5-1.4c0.8-0.5,1.6-1,2.4-1.5
		s1.6-1.1,2.3-1.7c0.7-0.6,1.5-1.2,2.2-1.8c0.7-0.6,1.4-1.3,2-2c0.7-0.7,1.3-1.4,1.9-2.1c0.6-0.7,1.2-1.5,1.8-2.2
		C109.1,100.1,109.2,100,109.2,100z M60.9,95.9L60.9,95.9c-0.5-0.3-1-0.7-1.5-1s-1-0.7-1.5-1.1c0,0-0.1,0-0.1-0.1
		c-0.4-0.3-0.8-0.6-1.1-1c-0.1-0.1-0.2-0.2-0.3-0.3c-0.3-0.3-0.5-0.5-0.8-0.8c-0.2-0.2-0.4-0.4-0.6-0.6c-0.2-0.2-0.4-0.4-0.5-0.6
		c-0.3-0.3-0.5-0.6-0.8-0.9c-0.1-0.1-0.2-0.2-0.3-0.3c-0.3-0.4-0.6-0.8-0.9-1.2c0,0,0-0.1-0.1-0.1c-0.4-0.5-0.7-1-1-1.5
		c-0.3-0.5-0.6-1.1-1-1.6l0,0c-0.4-0.7-0.8-1.5-1.1-2.3c-0.3-0.8-0.7-1.6-1-2.4c-0.3-0.8-0.6-1.6-0.8-2.5c-0.2-0.8-0.4-1.7-0.6-2.6
		s-0.3-1.8-0.4-2.6c-0.1-0.9-0.2-1.8-0.2-2.7c0-0.9-0.1-1.8-0.1-2.7c0-0.9,0.1-1.7,0.1-2.6c0.1-0.8,0.2-1.7,0.3-2.5
		c0.1-0.8,0.3-1.6,0.5-2.3s0.4-1.5,0.6-2.2c0.2-0.7,0.5-1.4,0.7-2l0,0c0.3-0.7,0.6-1.4,1-2.1s0.8-1.3,1.2-1.9
		c0.4-0.6,0.9-1.1,1.3-1.7c0.5-0.5,1-1,1.5-1.4c0.5-0.4,1.1-0.8,1.6-1.2c0.6-0.3,1.1-0.6,1.8-0.9c0,0,0.1,0,0.1,0
		c0.8-0.3,1.6-0.6,2.4-0.7c0.1,0,0.1,0,0.2,0c0.3-0.1,0.7-0.1,1.1-0.1c0.1,0,0.2,0,0.3,0c0.9-0.1,1.7,0,2.6,0c0.1,0,0.2,0,0.4,0
		c0.3,0,0.7,0.1,1,0.2c0.1,0,0.3,0,0.4,0.1c0.5,0.1,0.9,0.2,1.4,0.3c0.9,0.2,1.8,0.6,2.8,0.9s1.9,0.8,2.8,1.3c0.9,0.5,1.9,1,2.8,1.6
		c0.9,0.6,1.9,1.2,2.8,1.8c0.5,0.3,0.9,0.7,1.4,1c0.5,0.3,0.9,0.7,1.4,1c0.5,0.4,0.9,0.7,1.4,1.1s0.9,0.7,1.4,1.1
		c0.5,0.4,0.9,0.8,1.4,1.1c0.5,0.4,0.9,0.8,1.4,1.2c0.4,0.4,0.9,0.8,1.3,1.2s0.9,0.8,1.3,1.2c0.4,0.4,0.8,0.8,1.2,1.2
		c0.4,0.4,0.8,0.8,1.2,1.2c0.8,0.8,1.5,1.7,2.1,2.5c0.7,0.9,1.3,1.7,1.8,2.6c0.6,0.9,1.1,1.7,1.5,2.6c0.4,0.9,0.8,1.8,1.2,2.7
		c0.3,0.9,0.6,1.8,0.8,2.8c0.1,0.5,0.2,1,0.3,1.5c0,0.1,0,0.3,0.1,0.4c0,0.4,0.1,0.7,0.1,1.1c0,0.1,0,0.3,0,0.4c0,1,0,1.9-0.1,2.8
		c0,0.1,0,0.2,0,0.3c-0.1,0.4-0.1,0.8-0.2,1.2c0,0.1,0,0.2,0,0.2c-0.2,0.9-0.5,1.9-0.8,2.7c0,0,0,0.1,0,0.1c-0.3,0.7-0.6,1.4-1,2
		s-0.8,1.3-1.2,1.9c-0.4,0.6-0.9,1.2-1.4,1.8c-0.5,0.6-1.1,1.1-1.6,1.6c-0.6,0.5-1.2,1-1.9,1.5c-0.7,0.5-1.3,0.9-2,1.3l0,0
		c-0.6,0.3-1.3,0.7-2,1s-1.4,0.6-2.1,0.8c-0.7,0.2-1.5,0.4-2.2,0.6c-0.8,0.2-1.5,0.3-2.3,0.4c-0.8,0.1-1.6,0.2-2.4,0.2
		c-0.8,0-1.7,0.1-2.5,0c-0.9,0-1.7-0.1-2.6-0.2c-0.8-0.1-1.7-0.2-2.5-0.4c-0.8-0.2-1.7-0.4-2.5-0.6c-0.8-0.2-1.6-0.5-2.4-0.8
		c-0.8-0.3-1.5-0.7-2.3-1C62.3,96.8,61.6,96.4,60.9,95.9z"/>
	<path class="st3" d="M80.2,76c0.2,0.8,0.3,1.5,0.3,2.2c0,0.7-0.1,1.3-0.4,1.9c-0.2,0.6-0.6,1.1-1,1.5c-0.4,0.4-0.9,0.8-1.5,1.1
		c-0.6,0.3-1.3,0.5-2,0.6c-0.7,0.1-1.5,0.1-2.4-0.1c-0.8-0.1-1.7-0.4-2.5-0.7c-0.8-0.3-1.6-0.8-2.3-1.3s-1.4-1.1-2.1-1.7
		c-0.6-0.6-1.2-1.4-1.7-2.1c-0.5-0.8-0.9-1.6-1.3-2.4c-0.4-0.8-0.6-1.7-0.8-2.6c-0.2-0.9-0.2-1.7-0.2-2.4c0-0.8,0.2-1.4,0.4-2.1
		c0.2-0.6,0.5-1.1,0.9-1.6c0.4-0.4,0.8-0.8,1.4-1c0.5-0.2,1.1-0.4,1.8-0.4c0.7,0,1.4,0,2.2,0.2s1.6,0.5,2.3,0.9
		c0.8,0.4,1.6,0.9,2.3,1.4c0.8,0.5,1.5,1.1,2.2,1.8c0.7,0.7,1.3,1.4,1.9,2.1c0.6,0.7,1.1,1.5,1.5,2.3S80,75.2,80.2,76z"/>
</g>
<g id="DEF" class="st0">
	<path class="st1" d="M72,117c-24.8,0-45-20.2-45-45s20.2-45,45-45s45,20.2,45,45S96.8,117,72,117z M72,29c-23.7,0-43,19.3-43,43
		s19.3,43,43,43s43-19.3,43-43S95.7,29,72,29z"/>
</g>
<g id="ABS" class="st0">
	<g class="st4">
		<path class="st2" d="M105.6,42.1L95.7,59c2,3.6,3.2,7.8,3.3,12.2l12.3-21.1C109.7,47.2,107.8,44.5,105.6,42.1z"/>
		<path class="st2" d="M72.3,99l-9.9,17c3.1,0.7,6.3,1,9.6,1c0.1,0,0.1,0,0.2,0l12.3-21.1C80.9,97.8,76.7,98.9,72.3,99z"/>
		<path class="st2" d="M47.7,34.1L27.1,69.3C27,70.2,27,71.1,27,72c0,4.3,0.6,8.4,1.7,12.4l32.8-56.1C56.6,29.4,51.9,31.4,47.7,34.1
			z"/>
		<path class="st2" d="M81.9,46.9c2.8,1.1,5.4,2.7,7.7,4.7l9.2-15.7c-2.4-1.8-5-3.3-7.7-4.6L81.9,46.9z"/>
		<path class="st2" d="M48.8,85.7c-2-3.4-3.3-7.4-3.7-11.5l-12,20.5c1.7,2.8,3.6,5.5,5.8,7.9L48.8,85.7z"/>
		<path class="st2" d="M60.7,47.4C64.2,45.9,68,45,72,45c0.2,0,0.4,0,0.6,0l9.8-16.8c-3.1-0.7-6.4-1.2-9.7-1.2L60.7,47.4z"/>
		<path class="st2" d="M116.8,76.4c0.1-1.5,0.2-2.9,0.2-4.4c0-3.9-0.5-7.7-1.4-11.3l-32.1,54.8c5.2-1.4,10-3.7,14.3-6.7L116.8,76.4z
			"/>
		<path class="st2" d="M62.8,97.4c-2.9-1-5.5-2.5-7.8-4.4l-9.2,15.6c2.4,1.7,5,3.2,7.8,4.5L62.8,97.4z"/>
	</g>
</g>
<g id="VER" class="st0">
	<path class="st5" d="M72,117c-24.8,0-45-20.2-45-45s20.2-45,45-45s45,20.2,45,45S96.8,117,72,117z M72,28.6
		c-23.9,0-43.4,19.5-43.4,43.4c0,23.9,19.5,43.4,43.4,43.4c23.9,0,43.4-19.5,43.4-43.4C115.4,48.1,95.9,28.6,72,28.6z"/>
	<circle class="st4" cx="41.5" cy="40" r="5.6"/>
	<circle class="st4" cx="114.2" cy="59" r="5.6"/>
	<circle class="st4" cx="98.5" cy="107.5" r="5.6"/>
</g>
</svg>
