<svg version="1.1" xmlns="http://www.w3.org/2000/svg" xmlns:xlink="http://www.w3.org/1999/xlink" x="0px" y="0px" viewBox="0 0 144 144" style="enable-background:new 0 0 144 144;" xml:space="preserve">
<style type="text/css">
	.st2{stroke:#ffffff;fill:#ffffff;stroke-width:2;stroke-linecap:round;stroke-linejoin:round;stroke-miterlimit:10;}
</style>
<g id="COD">
	<g>
	<path class="st2" d="M31.2,57.3c6-16.7,22-28.6,40.8-28.6c6.6,0,12.8,1.5,18.4,4.1l0.8-1.4C85.4,28.6,78.9,27,72,27
		c-19.5,0-36.1,12.5-42.4,29.8L31.2,57.3z"/>
	<path class="st2" d="M97.6,35l-0.8,1.4c11.2,7.8,18.6,20.9,18.6,35.6c0,23.9-19.5,43.4-43.4,43.4c-23.9,0-43.4-19.5-43.4-43.4
		c0-2.6,0.2-5.1,0.7-7.6L27.7,64c-0.5,2.6-0.7,5.3-0.7,8c0,24.8,20.2,45,45,45s45-20.2,45-45C117,56.7,109.3,43.2,97.6,35z"/>
	</g>
	<path class="st2" d="M72,88.8c-0.2,0-0.4-0.1-0.5-0.3L57.4,64.2c-0.1-0.2-0.1-0.4,0-0.6c0.1-0.2,0.3-0.3,0.5-0.3h28.1
		c0.2,0,0.4,0.1,0.5,0.3s0.1,0.4,0,0.6L72.5,88.5C72.4,88.7,72.2,88.8,72,88.8z M59,64.5l13,22.5l13-22.5H59z"/>
</g>
</svg>