<svg version="1.1" xmlns="http://www.w3.org/2000/svg" xmlns:xlink="http://www.w3.org/1999/xlink" x="0px" y="0px" viewBox="0 0 144 144" style="enable-background:new 0 0 144 144;" xml:space="preserve">
<g>
	<g>
		<path fill="#fff" d="M68.779,73.334H26.038c0.087,2.967,0.444,5.865,1.065,8.666h33.01L68.779,73.334z"/>
		<path fill="#fff" d="M72.552,73.334L62,83.885v33.013c3.221,0.714,6.564,1.103,10,1.103s6.778-0.389,9.999-1.103V81.999h34.898
			c0.621-2.801,0.978-5.698,1.065-8.665H72.552z"/>
	</g>
	<g>
		<path fill="#fff" d="M75.219,70.667h42.744c-0.088-2.966-0.444-5.865-1.065-8.666H83.885L75.219,70.667z"/>
		<path fill="#fff" d="M81.999,60.114V27.103C78.778,26.389,75.436,26,72,26c-3.436,0-6.779,0.389-10,1.103V62H27.103
			c-0.621,2.801-0.979,5.7-1.065,8.667h45.409L81.999,60.114z"/>
	</g>
</g>
</svg>